PathFileType	4	(X/Y/Z)	 s09c0401.trc
DataRate	CameraRate	NumFrames	NumMarkers	Units	OrigDataRate	OrigDataStartFrame	OrigNumFrames
200	200	4	50	mm	200	1	2000
Frame#	Time	racr			lacr			c7			jug			rlel			rdr			llel			ldr			s2			lic			ric			lasi			rasi			rpsi			lpsi			rgt			lgt			rth1			rth2			rth3			rth4			rlfc			rmfc			rsh1			rsh2			rsh3			rsh4			rlmal			rmmal			rcal			rtoe			rmt5			lth1			lth2			lth4			lth3			llfc			lmfc			llmal			lmmal			lcal			lmt5			lsh1			lsh2			lsh3			lsh4			ltoe			SBIKE			LBIKE			RBIKE			
		X1	Y1	Z1	X2	Y2	Z2	X3	Y3	Z3	X4	Y4	Z4	X5	Y5	Z5	X6	Y6	Z6	X7	Y7	Z7	X8	Y8	Z8	X9	Y9	Z9	X10	Y10	Z10	X11	Y11	Z11	X12	Y12	Z12	X13	Y13	Z13	X14	Y14	Z14	X15	Y15	Z15	X16	Y16	Z16	X17	Y17	Z17	X18	Y18	Z18	X19	Y19	Z19	X20	Y20	Z20	X21	Y21	Z21	X22	Y22	Z22	X23	Y23	Z23	X24	Y24	Z24	X25	Y25	Z25	X26	Y26	Z26	X27	Y27	Z27	X28	Y28	Z28	X29	Y29	Z29	X30	Y30	Z30	X31	Y31	Z31	X32	Y32	Z32	X33	Y33	Z33	X34	Y34	Z34	X35	Y35	Z35	X36	Y36	Z36	X37	Y37	Z37	X38	Y38	Z38	X39	Y39	Z39	X40	Y40	Z40	X41	Y41	Z41	X42	Y42	Z42	X43	Y43	Z43	X44	Y44	Z44	X45	Y45	Z45	X46	Y46	Z46	X47	Y47	Z47	X48	Y48	Z48	X49	Y49	Z49	X50	Y50	Z50	
1	0.0050	539.360006	1317.124176	-101.848428	537.956649	1304.267241	-406.616156	NaN	NaN	NaN	502.383732	1197.207567	-249.171880	506.550073	1081.669536	22.557864	682.914895	909.501308	-34.392596	456.595342	1046.559477	-512.150231	661.643505	908.032859	-455.621525	29.667237	1153.082271	-227.716624	163.702964	1139.096135	-377.165638	184.645957	1132.765361	-91.114419	197.991101	1073.498304	-359.794479	219.412297	1069.735953	-111.807002	66.616494	1179.054517	-168.396856	59.886138	1188.140275	-278.595169	145.306052	991.510674	-44.618159	116.386285	1023.606841	-426.099359	233.269295	884.950543	-54.815342	299.407644	829.310817	-69.261384	327.065274	745.020593	-79.200842	322.475706	847.122687	-91.752772	360.572670	650.408167	-115.396267	336.041993	639.173883	-212.213680	274.946909	592.771178	-82.516725	225.774338	518.079349	-94.444105	147.118071	479.345656	-91.021266	240.168901	502.021150	-127.687662	69.584822	416.565951	-89.054436	76.967812	423.224563	-168.561555	-20.921243	417.717769	-127.047520	215.089867	298.055810	-123.353246	132.433162	318.550497	-60.268450	222.826497	938.226481	-426.563735	304.364436	912.089652	-420.521753	324.224118	940.683673	-404.525366	364.720055	844.783283	-419.393271	434.227067	767.982984	-401.787136	454.211495	756.312435	-303.655165	359.183085	410.372808	-406.375876	375.510255	421.451694	-336.017775	288.101754	373.997752	-369.518713	455.001999	328.359784	-433.163925	412.734472	669.128244	-423.856874	418.897863	582.775791	-414.855365	379.277293	503.264764	-412.899514	444.127705	580.889784	-384.729234	547.166877	344.913704	-365.846585	-65.215414	853.547550	-238.966365	20.762257	84.548567	-441.994629	21.218611	83.773823	-43.704773	
2	0.0100	539.471957	1317.004484	-101.821636	538.082296	1304.110203	-406.593291	NaN	NaN	NaN	502.498067	1197.012575	-249.144167	506.489167	1081.552294	22.641199	682.783794	909.500860	-34.611596	456.569402	1046.510654	-512.205897	661.611122	908.046356	-455.706862	29.760918	1153.096333	-227.674787	163.759862	1139.075742	-377.142570	184.717628	1132.752133	-91.086248	198.036388	1073.470919	-359.766651	219.483247	1069.682695	-111.785210	66.686042	1179.077328	-168.377544	59.972346	1188.160094	-278.602067	145.385595	991.529409	-44.563907	116.391317	1023.573191	-426.082581	233.351748	884.969859	-54.764062	299.472010	829.332443	-69.229112	327.122012	745.040357	-79.156394	322.516558	847.129853	-91.711810	360.615005	650.401966	-115.350119	336.077613	639.164033	-212.193048	274.986302	592.753309	-82.473280	225.791450	518.085563	-94.410725	147.136235	479.355976	-91.004817	240.200954	502.019434	-127.664096	69.606870	416.587263	-89.041717	76.968007	423.231761	-168.559110	-20.923445	417.796970	-127.012885	215.094630	298.067077	-123.338735	132.462925	318.561281	-60.269184	222.807796	938.209211	-426.593776	304.345767	912.067565	-420.572886	324.209388	940.668770	-404.577704	364.708797	844.762212	-419.436959	434.235506	767.937600	-401.850048	454.231585	756.282554	-303.689412	359.178853	410.367297	-406.373726	375.513694	421.455704	-336.024025	288.112058	373.996513	-369.505513	454.989259	328.333820	-433.167064	412.750402	669.102789	-423.884960	418.918154	582.718786	-414.856925	379.312157	503.242777	-412.917937	444.146361	580.840052	-384.687238	547.176140	344.906598	-365.851277	-65.207605	853.538437	-238.977448	20.768416	84.562860	-441.994721	21.225139	83.778462	-43.700624	
3	0.0150	539.589542	1316.888132	-101.821874	538.194758	1303.948533	-406.581328	NaN	NaN	NaN	502.575116	1196.825962	-249.092921	506.450177	1081.481690	22.710116	682.652319	909.501571	-34.828891	456.517936	1046.417677	-512.292254	661.577103	908.064376	-455.756590	29.823636	1153.136748	-227.649573	163.793429	1139.049198	-377.089322	184.804181	1132.750804	-91.056004	198.081129	1073.451049	-359.733530	219.550042	1069.630658	-111.799986	66.784782	1179.100550	-168.368989	60.058687	1188.199513	-278.568675	145.444038	991.546425	-44.538277	116.396870	1023.573049	-426.057223	233.407988	884.994622	-54.731264	299.512077	829.348284	-69.192476	327.154182	745.043928	-79.117733	322.567484	847.152322	-91.687538	360.624625	650.405196	-115.307060	336.137168	639.136289	-212.143326	274.995537	592.751914	-82.440624	225.798297	518.080233	-94.390129	147.132374	479.366220	-90.986572	240.220113	502.027088	-127.637111	69.597495	416.592759	-89.039633	76.979877	423.239879	-168.554119	-20.921505	417.740351	-127.047419	215.087590	298.060708	-123.340654	132.451338	318.565149	-60.256698	222.808864	938.207101	-426.593654	304.321291	912.051460	-420.609760	324.199418	940.660539	-404.618864	364.685238	844.741998	-419.474265	434.208255	767.941861	-401.909940	454.242610	756.290141	-303.741772	359.188349	410.370380	-406.364751	375.545349	421.449114	-336.008671	288.110014	374.011449	-369.504812	454.994399	328.345576	-433.167573	412.765150	669.080583	-423.920091	418.927130	582.703973	-414.877131	379.325310	503.220930	-412.933567	444.175971	580.816613	-384.699189	547.175967	344.889223	-365.844774	-65.205773	853.527627	-238.982945	20.743232	84.415022	-442.098296	21.231315	83.790394	-43.701673	
4	0.0200	539.593583	1317.555275	-101.729029	538.313517	1303.785529	-406.556008	NaN	NaN	NaN	502.690275	1196.647046	-249.072361	506.455598	1081.573189	23.175659	682.527903	909.510577	-35.014385	456.531714	1046.067438	-512.466315	661.539654	908.070371	-455.807052	29.935560	1153.167722	-227.623801	163.842190	1139.053560	-377.066923	184.057007	1132.631277	-92.051252	198.123348	1073.457491	-359.692475	219.593283	1069.621315	-111.781226	67.248556	1178.589704	-168.541928	60.146715	1188.225393	-278.533358	145.548445	991.587666	-44.518730	116.429658	1023.584078	-426.038559	233.764392	884.908696	-54.259705	299.448674	829.675667	-68.997866	327.181604	745.074158	-79.060687	322.403834	846.651692	-92.191966	360.947902	650.162050	-115.140775	336.209155	639.106629	-212.070775	274.985879	592.746359	-82.401907	226.495767	518.047196	-93.901791	146.668517	479.957060	-90.562224	243.109301	502.821689	-126.759419	69.668915	416.646006	-88.902512	76.989842	423.224829	-168.529366	-20.920348	417.716866	-127.042793	215.093161	298.048091	-123.316606	132.461556	318.549672	-60.263434	222.870134	938.058900	-426.649079	304.335895	912.057105	-420.625541	324.138479	940.521146	-404.452246	364.695052	844.736140	-419.478648	434.239640	767.859120	-401.988497	454.245633	756.299597	-303.773143	358.867279	410.995344	-406.823504	375.564497	421.485257	-336.003586	288.128225	374.029118	-369.501766	454.999702	328.335840	-433.152790	412.869973	669.020028	-423.902272	418.929690	582.658618	-414.937791	379.348075	503.218616	-412.929969	444.225776	580.809557	-384.698732	547.187605	344.890156	-365.850733	-65.202146	853.526001	-238.977164	20.761804	84.548773	-441.993299	21.223387	83.782314	-43.699871	
